# xmcd
#
# Track frame offsets:
#       150
#       13433
#       27448
#       39073
#       54883
#       69920
#       87408
#       102058
#       114658
#       130735
#
# Disc length: 1894 seconds
#
# Revision: 5
# Processed by: cddbd v1.5.2PL0 Copyright (c) Steve Scherf et al.
# Submitted via: FreeDbEdit v0.1
#
DISCID=7707640a
DTITLE=Various Artist - Todays Biggest Country
DYEAR=1993
DGENRE=Country
TTITLE0=Sammy Kershaw - She Don't Know She's Beautiful
TTITLE1=Randy Travis - If I Didn't Have You
TTITLE2=Martina McBride - The Time Has Come
TTITLE3=Doug Stone - A Jukebox With a Country Song
TTITLE4=Ricky Van Shelton - Wild Man
TTITLE5=The Mavericks - What a Crying Shame
TTITLE6=Pam Tillis - Cleopatra, Queen of Denial
TTITLE7=Joe Diffie - If the Devil Danced in Empty Pockets
TTITLE8=Doug Supernaw - Reno
TTITLE9=Sawyer Brown - Trouble on the Line
EXTD=
EXTT0=
EXTT1=
EXTT2=
EXTT3=
EXTT4=
EXTT5=
EXTT6=
EXTT7=
EXTT8=
EXTT9=
PLAYORDER=
